<svg xmlns="http://www.w3.org/2000/svg" viewBox="0 0 326.28 326.29"><defs><style>.cls-1{fill:#fff;}</style></defs><title>Asset 2</title><g id="Layer_2" data-name="Layer 2"><g id="Layer_1-2" data-name="Layer 1"><path class="cls-1" d="M163.3,0a162.94,162.94,0,0,1,163,164.12c-.36,89.76-73.56,162.36-163.49,162.17C72.49,326.09-.22,252.88,0,162.37.22,72.66,73.49-.19,163.3,0Zm-.24,292.7c70.34,0,129.18-55.95,129.69-128.54A129.42,129.42,0,0,0,163.06,33.46C91.48,33.54,33.54,91.69,33.61,163.39A129.48,129.48,0,0,0,163.06,292.7Z"/><path class="cls-1" d="M171.31,222.32c-1.49-4.26-.3-6.84,3.44-9.23,14.68-9.39,25.43-21.82,28.78-39.54.12-.63.13-1.28.22-2.28-2.93-.86-5.85-1.45-8.56-2.54-15.17-6.15-23.76-21.48-20.78-36.85a35.16,35.16,0,0,1,33.83-28.57c19.43-.49,35.58,14,37.81,34.54,2.41,22.22-6.05,40.71-20.85,56.6-14,15-31.81,23.18-51.5,27.73A13.41,13.41,0,0,1,171.31,222.32Z"/><path class="cls-1" d="M80.35,222.65c-1.47-4.68-.25-7.24,3.52-9.57,12.5-7.76,21.9-18.31,27.1-32.28a39.57,39.57,0,0,0,1.45-4.76c.34-1.43.46-2.91.71-4.63-2.06-.65-3.92-1.25-5.78-1.81-15-4.54-24.95-18.16-24.22-33.28s12.72-29.19,27.57-32.13c25.89-5.12,41.55,12.4,44.25,33.31,3,23.34-6.58,42.55-22.62,58.83C118.06,210.81,100.29,218.55,80.35,222.65Z"/></g></g></svg>